# xmcd
#
# Track frame offsets: 
#        182
#        15557
#        27707
#        40982
#        53282
#        67607
#        85907
#        99782
#        115607
#        162182
#        173357
#        187157
#        205832
#        225557
#        237257
#        250082
#        259682
#        281920
#        295607
#        308570
#
# Disc length: 4385 seconds
#
# Revision: 10
# Processed by: cddbd v1.5.2PL0 Copyright (c) Steve Scherf et al.
# Submitted via: ExactAudioCopyFreeDBPlugin 1.0
#
DISCID=f7111f14
DTITLE=Nina Simone - Pastel Blues (1965) - Let It All Out (1966)
DYEAR=1990
DGENRE=Blues
TTITLE0=Be My Husband
TTITLE1=Nobody Knows You When You're Down And Out
TTITLE2=End Of The Line
TTITLE3=Trouble In Mind
TTITLE4=Tell Me More And More And Then Some
TTITLE5=Chilly Winds Don't Blow
TTITLE6=Ain't No Use
TTITLE7=Strange Fruit
TTITLE8=Sinnerman
TTITLE9=Mood Indigo
TTITLE10=The Other Woman
TTITLE11=Love Me Or Leave Me
TTITLE12=Don't Explain
TTITLE13=Little Girl Blue
TTITLE14=Chauffeur
TTITLE15=For Myself
TTITLE16=The Ballad of Hollis Brown
TTITLE17=This Year's Kisses
TTITLE18=Images
TTITLE19=Nearer Blessed Lord
EXTD=
EXTT0=
EXTT1=
EXTT2=
EXTT3=
EXTT4=
EXTT5=
EXTT6=
EXTT7=
EXTT8=
EXTT9=
EXTT10=
EXTT11=
EXTT12=
EXTT13=
EXTT14=
EXTT15=
EXTT16=
EXTT17=
EXTT18=
EXTT19=
PLAYORDER=
